<?xml version="1.0" encoding="utf-8"?>
<!-- Generator: Adobe Illustrator 24.1.2, SVG Export Plug-In . SVG Version: 6.00 Build 0)  -->
<svg version="1.1" id="Livello_1" xmlns="http://www.w3.org/2000/svg" xmlns:xlink="http://www.w3.org/1999/xlink" x="0px" y="0px"
	 viewBox="0 0 404 231" style="enable-background:new 0 0 404 231;" xml:space="preserve">
<style type="text/css">
	.st0{clip-path:url(#SVGID_2_);}
	.st1{fill:#1C1C1C;}
	.st2{fill:#00FFCC;fill-opacity:8.000000e-02;}
	.st3{fill:#FF00CC;fill-opacity:8.000000e-02;}
	.st4{fill:#0099FF;fill-opacity:8.000000e-02;}
	.st5{opacity:0.2;}
	.st6{opacity:0.2;fill:none;stroke:#FFFFFF;enable-background:new    ;}
	.st7{fill:#00FFCC;}
	.st8{fill:#FF00CC;}
	.st9{fill:#1C1C1C;fill-opacity:0.75;}
	.st10{fill:#FFFFFF;}
	.st11{fill:none;stroke:#FFFFFF;stroke-width:0.15;}
	.st12{fill:#0099FF;}
	.st13{fill:none;stroke:#FFFFFF;stroke-width:0.25;}
</style>
<g>
	<defs>
		<rect id="SVGID_1_" width="404" height="231"/>
	</defs>
	<clipPath id="SVGID_2_">
		<use xlink:href="#SVGID_1_"  style="overflow:visible;"/>
	</clipPath>
	<g class="st0">
		<rect class="st1" width="404" height="231"/>
		<path class="st2" d="M934.5,145c11.2,102.4-63.9,189.5-101.6,239.7c-206.5,275.5-209.1,88.6-450.5,8
			c-257.5-86-278.5-77.4-311-216.5C43.6,56.7,34.9-277.5,161.9-317.3C404.9-393.3,900.6-165.8,934.5,145z"/>
		<path class="st3" d="M-530.1,150.2c-6.7,113.1,0,211.5,88.3,330.2c124.4,167.1,288.2,244.3,375.2,202.3
			c87-42,94-152.4,182.5-249.5c31-34,219.5-258.5,354.5-364.5c135-106,263-311.1-77-376C9.7-380.5-507.4-230.3-530.1,150.2z"/>
		<path class="st4" d="M238.4-308.8c-147.5-3.8-165,88.5-174,326.5c-3.8,101.2,23.2,127.4,16.5,233
			c-7.5,117.5-348.8,149-185.2,392.2C14.9,820,597.4,795.2,551.9,528.2c-39.3-230.5-254.5-159.5-237.5-326
			c10.3-101.2,8.5-269,8.5-325.5C322.9-179.8,335.9-306.2,238.4-308.8z"/>
		<g class="st5">
			<path class="st6" d="M881.5,224c0,137.1-77.8,261.2-203.6,351.1C552,665,378.1,720.6,186,720.6c-192.1,0-366-55.6-491.8-145.5
				c-125.8-89.9-203.6-214-203.6-351.1c0-137.1,77.8-261.2,203.6-351.1C-179.9-216.9-6-272.6,186-272.6
				c192.1,0,366,55.6,491.8,145.5C803.7-37.2,881.5,87,881.5,224z"/>
		</g>
		<g class="st5">
			<path class="st6" d="M815.2,224c0,124-70.4,236.3-184.2,317.6C517.1,623,359.8,673.3,186,673.3C12.3,673.3-145,623-258.9,541.6
				C-372.7,460.3-443.1,348-443.1,224c0-124,70.4-236.3,184.2-317.6C-145-174.9,12.3-225.2,186-225.2
				c173.8,0,331.1,50.3,444.9,131.6C744.8-12.3,815.2,100,815.2,224z"/>
		</g>
		<g class="st5">
			<path class="st6" d="M748.9,224c0,110.9-62.9,211.4-164.8,284.1C482.3,580.9,341.5,625.9,186,625.9s-296.2-45-398.1-117.8
				S-376.8,334.9-376.8,224c0-110.9,62.9-211.4,164.8-284.1C-110.2-132.9,30.6-177.9,186-177.9s296.2,45,398.1,117.8
				C686,12.7,748.9,113.1,748.9,224z"/>
		</g>
		<g class="st5">
			<path class="st6" d="M682.6,224c0,97.8-55.5,186.5-145.4,250.7c-89.9,64.2-214,103.9-351.2,103.9
				c-137.2,0-261.3-39.7-351.2-103.9C-255,410.5-310.5,321.9-310.5,224c0-97.8,55.5-186.5,145.4-250.7
				c89.9-64.2,214-103.9,351.2-103.9c137.2,0,261.3,39.7,351.2,103.9C627.1,37.6,682.6,126.2,682.6,224z"/>
		</g>
		<g class="st5">
			<path class="st6" d="M616.3,224c0,84.8-48.1,161.6-126,217.2c-77.9,55.6-185.5,90-304.3,90c-118.9,0-226.5-34.4-304.3-90
				c-77.9-55.6-126-132.4-126-217.2c0-84.8,48.1-161.6,126-217.2c77.9-55.6,185.5-90,304.3-90c118.9,0,226.5,34.4,304.3,90
				C568.2,62.5,616.3,139.3,616.3,224z"/>
		</g>
		<g class="st5">
			<path class="st6" d="M550.1,224c0,71.7-40.7,136.7-106.6,183.7c-65.9,47.1-156.9,76.2-257.5,76.2c-100.6,0-191.6-29.1-257.5-76.2
				C-137.3,360.7-178,295.7-178,224c0-71.7,40.7-136.7,106.6-183.7C-5.6-6.7,85.5-35.8,186-35.8c100.6,0,191.6,29.1,257.5,76.2
				C509.4,87.4,550.1,152.3,550.1,224z"/>
			<path class="st7" d="M373.9,2.5c2.1-3.6,0.8-8.2-2.7-10.2c-1.1-0.7-2.4-1-3.7-1v7.5L373.9,2.5z"/>
			<path class="st8" d="M367.4-8.8c-4.1,0-7.5,3.4-7.5,7.5c0,4.1,3.4,7.5,7.5,7.5c2.7,0,5.2-1.4,6.5-3.7l-6.5-3.7V-8.8z"/>
		</g>
		<g class="st5">
			<path class="st6" d="M483.8,224c0,58.6-33.3,111.7-87.1,150.2S268.3,436.6,186,436.6S29.3,412.7-24.6,374.3
				c-53.9-38.5-87.1-91.6-87.1-150.2c0-58.6,33.3-111.7,87.1-150.2C29.3,35.3,103.8,11.5,186,11.5s156.7,23.8,210.6,62.3
				C450.5,112.3,483.8,165.4,483.8,224z"/>
			<path class="st8" d="M6.9,60.2c2.8,0,5-2.2,5-5c0-2.8-2.2-5-5-5c-2.8,0-5,2.2-5,5C1.9,58,4.2,60.2,6.9,60.2z"/>
			<g>
				<rect x="-36.1" y="32.2" class="st9" width="86" height="18"/>
				<path class="st10" d="M-32.7,46.7V36.6h6.4v1.7h-4v3.2h3.3v1.7h-3.3v3.4H-32.7z M-16.9,46.7h-2.4l-0.4-2.2h-2.7l-0.4,2.2h-2.4
					l2.3-10.2h3.8L-16.9,46.7z M-21.2,38.3l-0.9,4.5h2l-0.9-4.5H-21.2z M-15.7,46.7V36.6h2.4v4.1h0.5l2.5-4.1h2.6l-3.5,5.4v-0.8
					l3.6,5.6h-2.6l-2.6-4.3h-0.5v4.3H-15.7z M-6.2,46.7V36.6h6.9v1.7h-4.5v2.6h4v1.7h-4V45h4.5v1.7H-6.2z M9.3,46.7V36.6h3.5
					l2.5,8.2h-0.5v-8.2h2.4v10.2h-3l-2.7-8.1h0.1v8.1H9.3z M19.1,46.7V36.6H26v1.7h-4.5v2.6h4v1.7h-4V45H26v1.7H19.1z M34.3,46.7
					l-1.3-7l-0.3-3.1H34l1.8,8.7l-0.4,1.4H34.3z M28.8,46.7l-1.6-10.2h2.5l0.8,8.6l0.2,1.5H28.8z M30.5,46.7l-0.3-1.4l1.8-8.7h1.3
					l-0.2,3.1l-1.3,7H30.5z M35.2,46.7l0.3-1.5l0.8-8.6h2.5l-1.6,10.2H35.2z M43.6,46.9c-0.7,0-1.3-0.1-1.8-0.3
					c-0.6-0.2-1-0.5-1.4-0.9c-0.4-0.4-0.6-0.8-0.8-1.3l2.3-0.9c0.1,0.3,0.2,0.5,0.4,0.8c0.2,0.2,0.4,0.4,0.7,0.6
					c0.3,0.2,0.6,0.2,0.9,0.2c0.3,0,0.6,0,0.8-0.1c0.2-0.1,0.4-0.2,0.5-0.4c0.1-0.2,0.2-0.4,0.2-0.6c0-0.2-0.1-0.3-0.2-0.5
					c-0.1-0.1-0.3-0.3-0.5-0.4c-0.2-0.1-0.4-0.2-0.7-0.3c-0.3-0.1-0.5-0.2-0.8-0.3c-0.4-0.1-0.9-0.3-1.2-0.5s-0.7-0.4-1-0.6
					c-0.3-0.2-0.5-0.5-0.7-0.9c-0.2-0.3-0.2-0.7-0.2-1.2c0-0.4,0.1-0.7,0.2-1c0.1-0.3,0.4-0.6,0.6-0.8c0.3-0.2,0.6-0.4,0.9-0.6
					c0.3-0.1,0.7-0.3,1.1-0.3c0.4-0.1,0.7-0.1,1.1-0.1c0.6,0,1.2,0.1,1.7,0.3c0.5,0.2,1,0.4,1.3,0.8c0.4,0.3,0.6,0.7,0.7,1.1l-2.2,1
					c-0.1-0.3-0.2-0.5-0.3-0.7c-0.1-0.2-0.3-0.3-0.6-0.4c-0.2-0.1-0.5-0.2-0.7-0.2c-0.2,0-0.4,0-0.5,0.1c-0.2,0-0.3,0.1-0.4,0.2
					c-0.1,0.1-0.2,0.2-0.3,0.3c-0.1,0.1-0.1,0.3-0.1,0.4c0,0.2,0.1,0.4,0.2,0.6c0.1,0.2,0.3,0.3,0.6,0.4c0.3,0.1,0.6,0.2,0.9,0.4
					c0.3,0.1,0.6,0.2,1,0.3c0.3,0.1,0.7,0.3,1,0.4c0.3,0.2,0.6,0.4,0.9,0.6c0.3,0.2,0.5,0.5,0.6,0.8c0.1,0.3,0.2,0.7,0.2,1.1
					c0,0.5-0.1,0.9-0.2,1.2c-0.2,0.3-0.4,0.6-0.6,0.9c-0.3,0.2-0.6,0.4-0.9,0.6c-0.3,0.1-0.7,0.3-1.1,0.3
					C44.3,46.9,43.9,46.9,43.6,46.9z"/>
				<rect x="-36.1" y="32.2" class="st11" width="86.2" height="18.2"/>
			</g>
			<path class="st7" d="M102.5,7.2c3.8,0,7.4,1.8,9.8,4.7l-9.8,7.8L102.5,7.2z"/>
			<path class="st8" d="M114.6,22.5c-1.6,6.7-8.3,10.9-15,9.4c-6.7-1.6-10.9-8.3-9.4-15c1.3-5.7,6.4-9.7,12.2-9.7l0,12.5L114.6,22.5
				z"/>
			<path class="st12" d="M112.2,12c2.4,3,3.2,6.9,2.4,10.6l-12.2-2.8L112.2,12z"/>
			<g>
				<rect x="66.9" y="-8.8" class="st9" width="71" height="18"/>
				<path class="st10" d="M72.4,5.7v-8.4h-2.7v-1.7h7.8v1.7h-2.7v8.4H72.4z M85.4,5.7l-1.3-7l-0.3-3.1h1.3l1.8,8.7l-0.4,1.4H85.4z
					 M79.9,5.7L78.3-4.4h2.5l0.8,8.6l0.2,1.5H79.9z M81.7,5.7l-0.3-1.4l1.8-8.7h1.3l-0.2,3.1l-1.3,7H81.7z M86.4,5.7l0.3-1.5
					l0.8-8.6H90L88.4,5.7H86.4z M91.5,5.7V4h2v-6.7h-2v-1.7H98v1.7h-2V4h2v1.7H91.5z M102.7,5.7v-8.4H100v-1.7h7.8v1.7h-2.7v8.4
					H102.7z M111.8,5.7v-8.4h-2.7v-1.7h7.8v1.7h-2.7v8.4H111.8z M118.8,5.7V-4.4h6.9v1.7h-4.5v2.6h4v1.7h-4V4h4.5v1.7H118.8z
					 M127.7,5.7V-4.4h4.1c0.3,0,0.6,0,0.9,0.1c0.3,0.1,0.6,0.1,0.9,0.3c0.3,0.1,0.6,0.3,0.8,0.5c0.2,0.2,0.4,0.5,0.6,0.8
					c0.1,0.3,0.2,0.8,0.2,1.2c0,0.5-0.1,1-0.2,1.4c-0.2,0.4-0.4,0.7-0.6,0.9c-0.3,0.2-0.6,0.4-0.9,0.5c-0.3,0.1-0.6,0.2-0.9,0.2
					c-0.3,0-0.6,0.1-0.8,0.1h-1.6v4.1H127.7z M132.8,5.7L131.1,1l2.3-0.2l1.9,5H132.8z M130.1,0h1.2c0.3,0,0.6,0,0.8-0.1
					c0.2-0.1,0.4-0.2,0.5-0.4c0.1-0.2,0.2-0.5,0.2-0.8c0-0.3-0.1-0.6-0.2-0.8c-0.1-0.2-0.3-0.3-0.6-0.4c-0.2-0.1-0.5-0.1-0.8-0.1
					h-1.2V0z"/>
				<rect x="66.9" y="-8.8" class="st11" width="71.2" height="18.1"/>
			</g>
			<path class="st12" d="M237.9,15.2l10.5-3.4c0.7,2.2,0.7,4.6,0,6.8c-1.9,5.8-8.1,8.9-13.9,7.1c-5.8-1.9-8.9-8.1-7.1-13.9
				L237.9,15.2z"/>
			<path class="st7" d="M237.9,15.2l0-11c4.7,0,9,3.1,10.5,7.6L237.9,15.2z"/>
			<path class="st8" d="M237.9,15.2l-10.5-3.4c1.5-4.5,5.7-7.6,10.4-7.6L237.9,15.2z"/>
			<g>
				<rect x="209.9" y="-13.8" class="st9" width="56" height="18"/>
				<path class="st10" d="M216.2,0.9c-0.4,0-0.9-0.1-1.3-0.2c-0.4-0.1-0.8-0.3-1.2-0.6c-0.4-0.3-0.7-0.6-1-1
					c-0.3-0.4-0.5-0.9-0.7-1.5c-0.2-0.6-0.2-1.2-0.2-2c0-0.7,0.1-1.4,0.2-2c0.2-0.6,0.4-1.1,0.7-1.5c0.3-0.4,0.6-0.7,1-1
					c0.4-0.3,0.8-0.5,1.2-0.6c0.4-0.1,0.9-0.2,1.3-0.2c0.4,0,0.9,0.1,1.3,0.2c0.4,0.1,0.8,0.3,1.2,0.6c0.4,0.3,0.7,0.6,1,1
					c0.3,0.4,0.5,0.9,0.7,1.5c0.2,0.6,0.2,1.2,0.2,2c0,0.7-0.1,1.4-0.2,2c-0.2,0.6-0.4,1.1-0.7,1.5c-0.3,0.4-0.6,0.7-1,1
					c-0.4,0.3-0.8,0.4-1.2,0.6C217,0.8,216.6,0.9,216.2,0.9z M216.2-0.9c0.2,0,0.5-0.1,0.7-0.2c0.2-0.1,0.4-0.3,0.6-0.6
					c0.2-0.3,0.3-0.6,0.4-1.1c0.1-0.4,0.2-1,0.2-1.6c0-0.6-0.1-1.1-0.2-1.6c-0.1-0.4-0.2-0.8-0.4-1.1c-0.2-0.3-0.4-0.5-0.6-0.6
					c-0.2-0.1-0.5-0.2-0.7-0.2c-0.3,0-0.5,0.1-0.7,0.2c-0.2,0.1-0.4,0.3-0.6,0.6c-0.2,0.3-0.3,0.6-0.4,1.1c-0.1,0.4-0.2,1-0.2,1.6
					c0,0.6,0.1,1.1,0.2,1.6c0.1,0.4,0.2,0.8,0.4,1.1c0.2,0.3,0.4,0.5,0.6,0.6C215.7-0.9,215.9-0.9,216.2-0.9z M221.3,0.7V-9.4h3.5
					l2.5,8.2h-0.5v-8.2h2.4V0.7h-3l-2.7-8.1h0.1v8.1H221.3z M230.6,0.7V-9.4h2.4V-1h3.5v1.7H230.6z M238.2,0.7V-1h2v-6.7h-2v-1.7
					h6.5v1.7h-2V-1h2v1.7H238.2z M246.5,0.7V-9.4h3.5l2.5,8.2h-0.5v-8.2h2.4V0.7h-3l-2.7-8.1h0.1v8.1H246.5z M256.3,0.7V-9.4h6.9
					v1.7h-4.5v2.6h4v1.7h-4V-1h4.5v1.7H256.3z"/>
				<rect x="209.9" y="-13.8" class="st11" width="56.1" height="18.1"/>
			</g>
			<path class="st7" d="M170.9-15.1c13.3,0,24,10.7,24,24c0,2.2-0.3,4.4-0.9,6.6l-23.1-6.5L170.9-15.1z"/>
			<path class="st8" d="M190.1,23.3c-8,10.6-23,12.7-33.6,4.7c-10.6-8-12.7-23-4.7-33.6c4.5-6,11.6-9.5,19.1-9.6l0,24L190.1,23.3z"
				/>
			<path class="st12" d="M194,15.4c-0.8,2.9-2.1,5.5-3.9,7.9L170.9,8.9L194,15.4z"/>
			<path class="st7" d="M295.9,27.2l-0.2-11c2.3-0.1,4.6,0.6,6.5,1.9c5,3.5,6.2,10.3,2.8,15.3c-3.5,5-10.3,6.2-15.3,2.8L295.9,27.2z
				"/>
			<path class="st8" d="M295.9,27.2l-10.5-3.1c1.3-4.6,5.6-7.7,10.3-7.8L295.9,27.2z"/>
			<path class="st12" d="M295.9,27.2l-6.3,9c-3.9-2.7-5.6-7.6-4.3-12.2L295.9,27.2z"/>
			<g>
				<rect x="265.9" y="-1.8" class="st9" width="59" height="18"/>
				<path class="st10" d="M271.4,12.7V4.3h-2.7V2.6h7.8v1.7h-2.7v8.4H271.4z M278.5,12.7V11h2V4.3h-2V2.6h6.5v1.7h-2V11h2v1.7H278.5
					z M287.1,12.7V2.6h2.4v4.1h0.5l2.5-4.1h2.6l-3.5,5.4V7.1l3.6,5.6h-2.6L290,8.4h-0.5v4.3H287.1z M298.8,12.7V4.3h-2.7V2.6h7.8
					v1.7h-2.7v8.4H298.8z M309.1,12.9c-0.4,0-0.9-0.1-1.3-0.2c-0.4-0.1-0.8-0.3-1.2-0.6c-0.4-0.3-0.7-0.6-1-1
					c-0.3-0.4-0.5-0.9-0.7-1.5c-0.2-0.6-0.2-1.2-0.2-2c0-0.7,0.1-1.4,0.2-2c0.2-0.6,0.4-1.1,0.7-1.5c0.3-0.4,0.6-0.7,1-1
					c0.4-0.3,0.8-0.5,1.2-0.6c0.4-0.1,0.9-0.2,1.3-0.2c0.4,0,0.9,0.1,1.3,0.2c0.4,0.1,0.8,0.3,1.2,0.6c0.4,0.3,0.7,0.6,1,1
					c0.3,0.4,0.5,0.9,0.7,1.5c0.2,0.6,0.2,1.2,0.2,2c0,0.7-0.1,1.4-0.2,2c-0.2,0.6-0.4,1.1-0.7,1.5c-0.3,0.4-0.6,0.7-1,1
					c-0.4,0.3-0.8,0.4-1.2,0.6C310,12.8,309.6,12.9,309.1,12.9z M309.1,11.1c0.2,0,0.5-0.1,0.7-0.2c0.2-0.1,0.4-0.3,0.6-0.6
					c0.2-0.3,0.3-0.6,0.4-1.1c0.1-0.4,0.2-1,0.2-1.6c0-0.6-0.1-1.1-0.2-1.6c-0.1-0.4-0.2-0.8-0.4-1.1c-0.2-0.3-0.4-0.5-0.6-0.6
					c-0.2-0.1-0.5-0.2-0.7-0.2c-0.3,0-0.5,0.1-0.7,0.2c-0.2,0.1-0.4,0.3-0.6,0.6c-0.2,0.3-0.3,0.6-0.4,1.1c-0.1,0.4-0.2,1-0.2,1.6
					c0,0.6,0.1,1.1,0.2,1.6c0.1,0.4,0.2,0.8,0.4,1.1c0.2,0.3,0.4,0.5,0.6,0.6C308.6,11.1,308.9,11.1,309.1,11.1z M314.5,12.7V2.6
					h2.4v4.1h0.5l2.5-4.1h2.6L319,7.9V7.1l3.6,5.6H320l-2.6-4.3h-0.5v4.3H314.5z"/>
				<rect x="265.9" y="-1.8" class="st11" width="59.1" height="18.1"/>
			</g>
		</g>
		<g class="st5">
			<path class="st6" d="M417.5,224c0,45.6-25.8,86.8-67.7,116.8c-41.9,29.9-99.8,48.4-163.7,48.4S64.2,370.7,22.3,340.8
				c-41.9-29.9-67.7-71.2-67.7-116.8c0-45.6,25.8-86.8,67.7-116.8C64.2,77.4,122.1,58.8,186,58.8s121.9,18.5,163.7,48.4
				C391.7,137.2,417.5,178.5,417.5,224z"/>
			<path class="st8" d="M16.9,118.2c5,0,9-4,9-9c0-5-4-9-9-9c-5,0-9,4-9,9C7.9,114.2,12,118.2,16.9,118.2z"/>
			<g>
				<rect x="-11.1" y="82.2" class="st9" width="56" height="18"/>
				<path class="st10" d="M-8.3,96.7V86.6h3.6c0.3,0,0.6,0,0.9,0.1c0.3,0.1,0.7,0.2,1,0.3c0.3,0.1,0.6,0.4,0.9,0.6
					c0.3,0.3,0.5,0.6,0.7,1C-1.1,89-1,89.5-1,90.1c0,0.6-0.1,1.1-0.3,1.5c-0.2,0.4-0.4,0.8-0.7,1c-0.3,0.3-0.6,0.5-0.9,0.6
					c-0.3,0.2-0.7,0.3-1,0.3c-0.3,0.1-0.6,0.1-0.9,0.1h-1.2v3H-8.3z M-5.9,92H-5c0.2,0,0.4,0,0.6-0.1c0.2-0.1,0.4-0.2,0.5-0.3
					c0.1-0.1,0.3-0.3,0.3-0.6c0.1-0.2,0.1-0.5,0.1-0.9c0-0.3,0-0.6-0.1-0.8c-0.1-0.2-0.2-0.4-0.3-0.6c-0.1-0.1-0.3-0.2-0.5-0.3
					c-0.2-0.1-0.4-0.1-0.6-0.1h-0.9V92z M4.3,96.9c-0.4,0-0.9-0.1-1.3-0.2c-0.4-0.1-0.8-0.3-1.2-0.6c-0.4-0.3-0.7-0.6-1-1
					c-0.3-0.4-0.5-0.9-0.7-1.5C0,93.1,0,92.4,0,91.7c0-0.7,0.1-1.4,0.2-2c0.2-0.6,0.4-1.1,0.7-1.5c0.3-0.4,0.6-0.7,1-1
					C2.2,87,2.6,86.8,3,86.7c0.4-0.1,0.9-0.2,1.3-0.2c0.4,0,0.9,0.1,1.3,0.2C6,86.8,6.4,87,6.7,87.3c0.4,0.3,0.7,0.6,1,1
					c0.3,0.4,0.5,0.9,0.7,1.5c0.2,0.6,0.2,1.2,0.2,2c0,0.7-0.1,1.4-0.2,2c-0.2,0.6-0.4,1.1-0.7,1.5c-0.3,0.4-0.6,0.7-1,1
					c-0.4,0.3-0.8,0.4-1.2,0.6C5.1,96.8,4.7,96.9,4.3,96.9z M4.3,95.1c0.2,0,0.5-0.1,0.7-0.2c0.2-0.1,0.4-0.3,0.6-0.6
					c0.2-0.3,0.3-0.6,0.4-1.1c0.1-0.4,0.2-1,0.2-1.6c0-0.6-0.1-1.1-0.2-1.6c-0.1-0.4-0.2-0.8-0.4-1.1c-0.2-0.3-0.4-0.5-0.6-0.6
					c-0.2-0.1-0.5-0.2-0.7-0.2c-0.3,0-0.5,0.1-0.7,0.2c-0.2,0.1-0.4,0.3-0.6,0.6c-0.2,0.3-0.3,0.6-0.4,1.1c-0.1,0.4-0.2,1-0.2,1.6
					c0,0.6,0.1,1.1,0.2,1.6c0.1,0.4,0.2,0.8,0.4,1.1c0.2,0.3,0.4,0.5,0.6,0.6C3.8,95.1,4,95.1,4.3,95.1z M9.6,96.7V86.6H12V95h3.5
					v1.7H9.6z M17.2,96.7V95h2v-6.7h-2v-1.7h6.5v1.7h-2V95h2v1.7H17.2z M29.9,96.9c-0.4,0-0.8-0.1-1.2-0.2c-0.4-0.1-0.8-0.3-1.2-0.5
					c-0.4-0.2-0.7-0.6-1-1c-0.3-0.4-0.5-0.9-0.7-1.5c-0.2-0.6-0.3-1.3-0.3-2.1s0.1-1.5,0.3-2.1c0.2-0.6,0.4-1.1,0.7-1.5
					c0.3-0.4,0.6-0.7,1-1s0.8-0.4,1.2-0.5c0.4-0.1,0.8-0.2,1.2-0.2c0.4,0,0.9,0.1,1.2,0.2c0.4,0.1,0.7,0.3,1.1,0.5s0.6,0.5,0.8,0.8
					c0.2,0.3,0.4,0.7,0.6,1.1l-2.1,1c-0.1-0.2-0.1-0.4-0.2-0.6c-0.1-0.2-0.2-0.4-0.3-0.6c-0.1-0.2-0.3-0.4-0.5-0.5
					c-0.2-0.1-0.4-0.2-0.6-0.2c-0.3,0-0.5,0.1-0.7,0.2c-0.2,0.1-0.4,0.3-0.6,0.6c-0.2,0.3-0.3,0.6-0.4,1.1c-0.1,0.4-0.2,1-0.2,1.6
					s0.1,1.1,0.2,1.6c0.1,0.4,0.3,0.8,0.4,1.1c0.2,0.3,0.4,0.5,0.6,0.6c0.2,0.1,0.5,0.2,0.7,0.2c0.2,0,0.5-0.1,0.6-0.2
					c0.2-0.1,0.3-0.3,0.5-0.5c0.1-0.2,0.2-0.4,0.3-0.6s0.2-0.4,0.2-0.6l2.1,1c-0.2,0.4-0.4,0.8-0.6,1.1c-0.2,0.3-0.5,0.6-0.8,0.8
					c-0.3,0.2-0.7,0.4-1.1,0.5C30.7,96.8,30.3,96.9,29.9,96.9z M35.3,96.7V86.6h6.9v1.7h-4.5v2.6h4v1.7h-4V95h4.5v1.7H35.3z"/>
				<rect x="-11.1" y="82.2" class="st11" width="56.2" height="18.2"/>
			</g>
			<g>
				<rect x="-73.1" y="128.2" class="st9" width="98" height="18"/>
				<path class="st10" d="M-70.4,142.7v-10.2h3.2c0.4,0,0.7,0,1.1,0.1c0.4,0,0.7,0.1,1.1,0.3c0.3,0.1,0.7,0.3,1,0.6
					c0.3,0.2,0.6,0.5,0.8,0.9c0.2,0.4,0.4,0.8,0.5,1.4c0.1,0.5,0.2,1.2,0.2,1.9c0,0.7-0.1,1.4-0.2,1.9c-0.1,0.5-0.3,1-0.5,1.4
					c-0.2,0.4-0.5,0.7-0.8,0.9c-0.3,0.2-0.6,0.4-1,0.6c-0.3,0.1-0.7,0.2-1.1,0.3c-0.4,0-0.7,0.1-1.1,0.1H-70.4z M-68,141h0.7
					c0.4,0,0.7-0.1,1-0.2c0.3-0.1,0.5-0.3,0.7-0.6c0.2-0.3,0.3-0.6,0.4-1c0.1-0.4,0.2-0.9,0.2-1.6c0-0.6-0.1-1.1-0.2-1.6
					c-0.1-0.4-0.3-0.8-0.4-1c-0.2-0.3-0.4-0.4-0.7-0.6c-0.3-0.1-0.6-0.2-1-0.2H-68V141z M-60.9,142.7v-10.2h6.9v1.7h-4.5v2.6h4v1.7
					h-4v2.4h4.5v1.7H-60.9z M-51.9,142.7v-10.2h3.6c0.3,0,0.6,0,0.9,0.1c0.3,0.1,0.7,0.2,1,0.3s0.6,0.4,0.9,0.6
					c0.3,0.3,0.5,0.6,0.7,1c0.2,0.4,0.3,0.9,0.3,1.5c0,0.6-0.1,1.1-0.3,1.5c-0.2,0.4-0.4,0.8-0.7,1c-0.3,0.3-0.6,0.5-0.9,0.6
					s-0.7,0.3-1,0.3c-0.3,0.1-0.6,0.1-0.9,0.1h-1.2v3H-51.9z M-49.5,138h0.9c0.2,0,0.4,0,0.6-0.1c0.2-0.1,0.4-0.2,0.5-0.3
					c0.1-0.1,0.3-0.3,0.3-0.6c0.1-0.2,0.1-0.5,0.1-0.9c0-0.3,0-0.6-0.1-0.8c-0.1-0.2-0.2-0.4-0.3-0.6c-0.1-0.1-0.3-0.2-0.5-0.3
					c-0.2-0.1-0.4-0.1-0.6-0.1h-0.9V138z M-35,142.7h-2.4l-0.4-2.2h-2.7l-0.4,2.2h-2.4l2.3-10.2h3.8L-35,142.7z M-39.3,134.3
					l-0.9,4.5h2l-0.9-4.5H-39.3z M-33.7,142.7v-10.2h4.1c0.3,0,0.6,0,0.9,0.1c0.3,0.1,0.6,0.1,0.9,0.3c0.3,0.1,0.6,0.3,0.8,0.5
					c0.2,0.2,0.4,0.5,0.6,0.8c0.1,0.3,0.2,0.8,0.2,1.2c0,0.5-0.1,1-0.2,1.4c-0.2,0.4-0.4,0.7-0.6,0.9c-0.3,0.2-0.6,0.4-0.9,0.5
					c-0.3,0.1-0.6,0.2-0.9,0.2c-0.3,0-0.6,0.1-0.8,0.1h-1.6v4.1H-33.7z M-28.5,142.7l-1.8-4.7l2.3-0.2l2,5H-28.5z M-31.3,137h1.2
					c0.3,0,0.6,0,0.8-0.1c0.2-0.1,0.4-0.2,0.5-0.4c0.1-0.2,0.2-0.5,0.2-0.8c0-0.3-0.1-0.6-0.2-0.8c-0.1-0.2-0.3-0.3-0.6-0.4
					c-0.2-0.1-0.5-0.1-0.8-0.1h-1.2V137z M-22.1,142.7v-8.4h-2.7v-1.7h7.8v1.7h-2.7v8.4H-22.1z M-10.8,141.4l0.5-3l1.5-5.8h1.3l0,2
					l-2,6.8H-10.8z M-15.9,142.7l0.8-10.2h2.2l-0.6,10.2H-15.9z M-11.3,141.4l-2-6.8l0-2h1.3l1.6,5.8l0.5,3H-11.3z M-7.2,142.7
					l-0.6-10.2h2.2l0.8,10.2H-7.2z M-3.1,142.7v-10.2h6.9v1.7h-4.5v2.6h4v1.7h-4v2.4h4.5v1.7H-3.1z M5.4,142.7v-10.2h3.5l2.5,8.2H11
					v-8.2h2.4v10.2h-3l-2.7-8.1h0.1v8.1H5.4z M17.3,142.7v-8.4h-2.7v-1.7h7.8v1.7h-2.7v8.4H17.3z"/>
				<rect x="-73.1" y="128.2" class="st11" width="98.2" height="18.1"/>
			</g>
		</g>
		<path class="st6" d="M351.2,224c0,32.5-18.4,61.9-48.3,83.3c-29.9,21.4-71.2,34.6-116.9,34.6s-87-13.2-116.9-34.6
			C39.3,286,20.8,256.5,20.8,224c0-32.5,18.4-61.9,48.3-83.3c29.9-21.3,71.2-34.6,116.9-34.6s87,13.2,116.9,34.6
			C332.8,162.1,351.2,191.6,351.2,224z"/>
		<g class="st5">
			<path class="st7" d="M188.4,153.9c44.2-0.4,80.5,35.1,81.2,79.5c0.1,10.5-1.8,21-5.7,30.8l-74.4-30L188.4,153.9z"/>
			<path class="st8" d="M228.3,304.3c-38.8,21.3-87.5,7.3-108.8-31.5c-21.3-38.7-7.1-87.4,31.7-108.7c11.5-6.3,24.5-9.7,37.7-10
				l0.9,80.1L228.3,304.3z"/>
			<g>
				<rect x="141.5" y="215.2" class="st9" width="101" height="37"/>
				<path class="st10" d="M145.2,244.7v-21h4.9v8.4h1l5.1-8.4h5.4l-7.1,11.1v-1.7l7.4,11.7h-5.4l-5.3-9h-1v9H145.2z M167.7,237.6
					v-3.9h9.7v3.9H167.7z M184.7,244.7v-21h7.4c0.6,0,1.2,0.1,1.9,0.2c0.7,0.1,1.4,0.3,2.1,0.6s1.3,0.7,1.9,1.3
					c0.6,0.6,1,1.3,1.4,2.1c0.4,0.8,0.5,1.9,0.5,3.1s-0.2,2.3-0.5,3.1c-0.3,0.9-0.8,1.6-1.4,2.1c-0.6,0.6-1.2,1-1.9,1.3
					c-0.7,0.3-1.4,0.5-2.1,0.7c-0.7,0.1-1.3,0.2-1.9,0.2h-2.4v6.2H184.7z M189.7,234.9h1.9c0.4,0,0.8-0.1,1.2-0.2
					c0.4-0.1,0.7-0.4,1-0.6c0.3-0.3,0.5-0.7,0.7-1.2c0.2-0.5,0.3-1.1,0.3-1.8c0-0.7-0.1-1.3-0.3-1.8c-0.2-0.5-0.4-0.9-0.7-1.2
					c-0.3-0.3-0.6-0.5-1-0.6c-0.4-0.1-0.8-0.2-1.2-0.2h-1.9V234.9z M211.5,245.1c-0.9,0-1.8-0.1-2.7-0.4c-0.9-0.3-1.7-0.6-2.4-1.2
					c-0.8-0.5-1.4-1.2-2-2.1c-0.6-0.9-1-1.9-1.4-3c-0.3-1.2-0.5-2.6-0.5-4.1c0-1.5,0.2-2.9,0.5-4.1c0.3-1.2,0.8-2.2,1.4-3
					c0.6-0.8,1.2-1.5,2-2.1c0.8-0.5,1.6-0.9,2.4-1.2c0.9-0.3,1.8-0.4,2.7-0.4c0.9,0,1.8,0.1,2.6,0.4c0.9,0.3,1.7,0.6,2.4,1.2
					c0.8,0.5,1.4,1.2,2,2.1c0.6,0.8,1,1.9,1.4,3c0.3,1.2,0.5,2.5,0.5,4.1c0,1.6-0.2,2.9-0.5,4.1c-0.3,1.2-0.8,2.2-1.4,3
					c-0.6,0.8-1.2,1.5-2,2.1c-0.8,0.5-1.6,0.9-2.4,1.2C213.2,244.9,212.4,245.1,211.5,245.1z M211.5,241.4c0.5,0,1-0.1,1.5-0.4
					c0.5-0.3,0.9-0.7,1.2-1.2c0.4-0.6,0.7-1.3,0.9-2.2c0.2-0.9,0.3-2,0.3-3.3c0-1.3-0.1-2.3-0.3-3.2c-0.2-0.9-0.5-1.6-0.9-2.2
					c-0.4-0.6-0.8-1-1.2-1.2c-0.5-0.3-1-0.4-1.5-0.4c-0.5,0-1,0.1-1.5,0.4c-0.5,0.3-0.9,0.7-1.3,1.2c-0.4,0.6-0.6,1.3-0.9,2.2
					c-0.2,0.9-0.3,2-0.3,3.2c0,1.3,0.1,2.4,0.3,3.3c0.2,0.9,0.5,1.6,0.9,2.2c0.4,0.6,0.8,1,1.3,1.2
					C210.4,241.3,210.9,241.4,211.5,241.4z M223.8,244.7v-21h7.3c0.6,0,1.2,0.1,1.9,0.2c0.7,0.1,1.4,0.3,2.1,0.6s1.3,0.7,1.9,1.3
					c0.6,0.6,1,1.3,1.4,2.1c0.3,0.8,0.5,1.9,0.5,3.1s-0.2,2.3-0.5,3.1c-0.4,0.9-0.8,1.6-1.4,2.1c-0.6,0.6-1.2,1-1.9,1.3
					c-0.7,0.3-1.4,0.5-2.1,0.7c-0.7,0.1-1.3,0.2-1.9,0.2h-2.4v6.2H223.8z M228.7,234.9h1.9c0.4,0,0.8-0.1,1.2-0.2
					c0.4-0.1,0.7-0.4,1-0.6c0.3-0.3,0.5-0.7,0.7-1.2c0.2-0.5,0.3-1.1,0.3-1.8c0-0.7-0.1-1.3-0.3-1.8c-0.2-0.5-0.4-0.9-0.7-1.2
					c-0.3-0.3-0.6-0.5-1-0.6c-0.4-0.1-0.8-0.2-1.2-0.2h-1.9V234.9z"/>
				<rect x="141.6" y="215.4" class="st13" width="100.8" height="36.8"/>
			</g>
		</g>
		<g class="st5">
			<path class="st7" d="M328.9,178.5c2.1,3.6,6.7,4.8,10.2,2.7c3.6-2.1,4.8-6.7,2.7-10.2c-1.3-2.3-3.8-3.8-6.5-3.8v7.5L328.9,178.5z
				"/>
			<path class="st8" d="M335.4,167.2c-4.1,0-7.5,3.4-7.5,7.5c0,1.3,0.3,2.6,1,3.7l6.5-3.7V167.2z"/>
			<g>
				<rect x="310.9" y="149.2" class="st9" width="49" height="18"/>
				<path class="st10" d="M317.3,163.9c-0.7,0-1.3-0.1-1.8-0.3c-0.6-0.2-1-0.5-1.4-0.9c-0.4-0.4-0.6-0.8-0.8-1.3l2.3-0.9
					c0.1,0.3,0.2,0.5,0.4,0.8c0.2,0.2,0.4,0.4,0.7,0.6c0.3,0.2,0.6,0.2,0.9,0.2c0.3,0,0.6,0,0.8-0.1c0.2-0.1,0.4-0.2,0.5-0.4
					c0.1-0.2,0.2-0.4,0.2-0.6c0-0.2-0.1-0.3-0.2-0.5c-0.1-0.1-0.3-0.3-0.5-0.4c-0.2-0.1-0.4-0.2-0.7-0.3c-0.3-0.1-0.5-0.2-0.8-0.3
					c-0.4-0.1-0.9-0.3-1.2-0.5c-0.4-0.2-0.7-0.4-1-0.6c-0.3-0.2-0.5-0.5-0.7-0.9c-0.2-0.3-0.2-0.7-0.2-1.2c0-0.4,0.1-0.7,0.2-1
					c0.1-0.3,0.4-0.6,0.6-0.8c0.3-0.2,0.6-0.4,0.9-0.6c0.3-0.1,0.7-0.3,1.1-0.3c0.4-0.1,0.7-0.1,1.1-0.1c0.6,0,1.2,0.1,1.7,0.3
					c0.5,0.2,1,0.4,1.3,0.8c0.4,0.3,0.6,0.7,0.7,1.1l-2.2,1c-0.1-0.3-0.2-0.5-0.3-0.7c-0.1-0.2-0.3-0.3-0.6-0.4
					c-0.2-0.1-0.5-0.2-0.7-0.2c-0.2,0-0.4,0-0.5,0.1c-0.2,0-0.3,0.1-0.4,0.2c-0.1,0.1-0.2,0.2-0.3,0.3c-0.1,0.1-0.1,0.3-0.1,0.4
					c0,0.2,0.1,0.4,0.2,0.6c0.1,0.2,0.3,0.3,0.6,0.4c0.3,0.1,0.6,0.2,0.9,0.4c0.3,0.1,0.6,0.2,1,0.3c0.3,0.1,0.7,0.3,1,0.4
					c0.3,0.2,0.6,0.4,0.9,0.6c0.3,0.2,0.5,0.5,0.6,0.8c0.1,0.3,0.2,0.7,0.2,1.1c0,0.5-0.1,0.9-0.2,1.2c-0.2,0.3-0.4,0.6-0.6,0.9
					c-0.3,0.2-0.6,0.4-0.9,0.6c-0.3,0.1-0.7,0.3-1.1,0.3C318.1,163.9,317.7,163.9,317.3,163.9z M325.3,163.7v-8.4h-2.7v-1.7h7.8v1.7
					h-2.7v8.4H325.3z M339.5,163.7H337l-0.4-2.2h-2.7l-0.4,2.2h-2.4l2.3-10.2h3.8L339.5,163.7z M335.2,155.3l-0.9,4.5h2l-0.9-4.5
					H335.2z M340.8,163.7v-10.2h4.1c0.3,0,0.6,0,0.9,0.1c0.3,0.1,0.6,0.1,0.9,0.3c0.3,0.1,0.6,0.3,0.8,0.5c0.2,0.2,0.4,0.5,0.6,0.8
					c0.2,0.3,0.2,0.8,0.2,1.2c0,0.5-0.1,1-0.2,1.4c-0.2,0.4-0.4,0.7-0.6,0.9c-0.3,0.2-0.6,0.4-0.9,0.5c-0.3,0.1-0.6,0.2-0.9,0.2
					c-0.3,0-0.6,0.1-0.8,0.1h-1.6v4.1H340.8z M345.9,163.7l-1.8-4.7l2.3-0.2l2,5H345.9z M343.2,158h1.2c0.3,0,0.6,0,0.8-0.1
					c0.2-0.1,0.4-0.2,0.5-0.4c0.1-0.2,0.2-0.5,0.2-0.8c0-0.3-0.1-0.6-0.2-0.8c-0.1-0.2-0.3-0.3-0.6-0.4c-0.2-0.1-0.5-0.1-0.8-0.1
					h-1.2V158z M353.5,163.9c-0.7,0-1.3-0.1-1.8-0.3c-0.6-0.2-1-0.5-1.4-0.9c-0.4-0.4-0.6-0.8-0.8-1.3l2.3-0.9
					c0.1,0.3,0.2,0.5,0.4,0.8c0.2,0.2,0.4,0.4,0.7,0.6c0.3,0.2,0.6,0.2,0.9,0.2c0.3,0,0.6,0,0.8-0.1c0.2-0.1,0.4-0.2,0.5-0.4
					c0.1-0.2,0.2-0.4,0.2-0.6c0-0.2-0.1-0.3-0.2-0.5c-0.1-0.1-0.3-0.3-0.5-0.4c-0.2-0.1-0.4-0.2-0.7-0.3c-0.3-0.1-0.5-0.2-0.8-0.3
					c-0.4-0.1-0.9-0.3-1.2-0.5c-0.4-0.2-0.7-0.4-1-0.6c-0.3-0.2-0.5-0.5-0.7-0.9c-0.2-0.3-0.2-0.7-0.2-1.2c0-0.4,0.1-0.7,0.2-1
					c0.1-0.3,0.4-0.6,0.6-0.8c0.3-0.2,0.6-0.4,0.9-0.6c0.3-0.1,0.7-0.3,1.1-0.3c0.4-0.1,0.7-0.1,1.1-0.1c0.6,0,1.2,0.1,1.7,0.3
					c0.5,0.2,1,0.4,1.3,0.8c0.4,0.3,0.6,0.7,0.7,1.1l-2.2,1c-0.1-0.3-0.2-0.5-0.3-0.7c-0.1-0.2-0.3-0.3-0.6-0.4
					c-0.2-0.1-0.5-0.2-0.7-0.2c-0.2,0-0.4,0-0.5,0.1c-0.2,0-0.3,0.1-0.4,0.2c-0.1,0.1-0.2,0.2-0.3,0.3c-0.1,0.1-0.1,0.3-0.1,0.4
					c0,0.2,0.1,0.4,0.2,0.6c0.1,0.2,0.3,0.3,0.6,0.4c0.3,0.1,0.6,0.2,0.9,0.4c0.3,0.1,0.6,0.2,1,0.3c0.3,0.1,0.7,0.3,1,0.4
					c0.3,0.2,0.6,0.4,0.9,0.6c0.3,0.2,0.5,0.5,0.6,0.8c0.1,0.3,0.2,0.7,0.2,1.1c0,0.5-0.1,0.9-0.2,1.2c-0.2,0.3-0.4,0.6-0.6,0.9
					c-0.3,0.2-0.6,0.4-0.9,0.6c-0.3,0.1-0.7,0.3-1.1,0.3C354.3,163.9,353.9,163.9,353.5,163.9z"/>
				<rect x="310.9" y="149.2" class="st11" width="49.1" height="18.1"/>
			</g>
		</g>
		<g class="st5">
			<path class="st8" d="M21.9,216.2c2.8,0,5-2.2,5-5c0-2.8-2.2-5-5-5s-5,2.2-5,5C16.9,214,19.2,216.2,21.9,216.2z"/>
			<g>
				<rect x="-13.1" y="188.2" class="st9" width="70" height="18"/>
				<path class="st10" d="M-9.6,202.7v-10.2h6.4v1.7h-4v3.2h3.3v1.7h-3.3v3.4H-9.6z M6.2,202.7H3.8l-0.4-2.2H0.6l-0.4,2.2h-2.4
					l2.3-10.2h3.8L6.2,202.7z M1.9,194.3L1,198.8h2l-0.9-4.5H1.9z M7.1,202.7v-10.2h3.5l2.5,8.2h-0.5v-8.2h2.4v10.2h-3l-2.7-8.1h0.1
					v8.1H7.1z M16.5,202.7v-10.2h3.2c0.4,0,0.7,0,1.1,0.1c0.4,0,0.7,0.1,1.1,0.3c0.3,0.1,0.7,0.3,1,0.6c0.3,0.2,0.6,0.5,0.8,0.9
					c0.2,0.4,0.4,0.8,0.5,1.4c0.1,0.5,0.2,1.2,0.2,1.9c0,0.7-0.1,1.4-0.2,1.9c-0.1,0.5-0.3,1-0.5,1.4c-0.2,0.4-0.5,0.7-0.8,0.9
					c-0.3,0.2-0.6,0.4-1,0.6c-0.3,0.1-0.7,0.2-1.1,0.3c-0.4,0-0.7,0.1-1.1,0.1H16.5z M18.8,201h0.7c0.4,0,0.7-0.1,1-0.2
					c0.3-0.1,0.5-0.3,0.7-0.6c0.2-0.3,0.3-0.6,0.4-1c0.1-0.4,0.2-0.9,0.2-1.6c0-0.6-0.1-1.1-0.2-1.6c-0.1-0.4-0.3-0.8-0.4-1
					c-0.2-0.3-0.4-0.4-0.7-0.6c-0.3-0.1-0.6-0.2-1-0.2h-0.7V201z M29.4,202.9c-0.4,0-0.9-0.1-1.3-0.2c-0.4-0.1-0.8-0.3-1.2-0.6
					c-0.4-0.3-0.7-0.6-1-1c-0.3-0.4-0.5-0.9-0.7-1.5c-0.2-0.6-0.2-1.2-0.2-2c0-0.7,0.1-1.4,0.2-2c0.2-0.6,0.4-1.1,0.7-1.5
					c0.3-0.4,0.6-0.7,1-1c0.4-0.3,0.8-0.5,1.2-0.6c0.4-0.1,0.9-0.2,1.3-0.2c0.4,0,0.9,0.1,1.3,0.2c0.4,0.1,0.8,0.3,1.2,0.6
					c0.4,0.3,0.7,0.6,1,1c0.3,0.4,0.5,0.9,0.7,1.5c0.2,0.6,0.2,1.2,0.2,2c0,0.7-0.1,1.4-0.2,2c-0.2,0.6-0.4,1.1-0.7,1.5
					c-0.3,0.4-0.6,0.7-1,1c-0.4,0.3-0.8,0.4-1.2,0.6C30.2,202.8,29.8,202.9,29.4,202.9z M29.4,201.1c0.2,0,0.5-0.1,0.7-0.2
					c0.2-0.1,0.4-0.3,0.6-0.6c0.2-0.3,0.3-0.6,0.4-1.1c0.1-0.4,0.2-1,0.2-1.6c0-0.6-0.1-1.1-0.2-1.6c-0.1-0.4-0.2-0.8-0.4-1.1
					c-0.2-0.3-0.4-0.5-0.6-0.6c-0.2-0.1-0.5-0.2-0.7-0.2c-0.3,0-0.5,0.1-0.7,0.2c-0.2,0.1-0.4,0.3-0.6,0.6c-0.2,0.3-0.3,0.6-0.4,1.1
					c-0.1,0.4-0.2,1-0.2,1.6c0,0.6,0.1,1.1,0.2,1.6c0.1,0.4,0.2,0.8,0.4,1.1c0.2,0.3,0.4,0.5,0.6,0.6
					C28.9,201.1,29.1,201.1,29.4,201.1z M39.6,201.4l0.5-3l1.5-5.8h1.3l0,2l-2,6.8H39.6z M34.4,202.7l0.8-10.2h2.2l-0.6,10.2H34.4z
					 M39,201.4l-2-6.8l0-2h1.3l1.6,5.8l0.5,3H39z M43.1,202.7l-0.6-10.2h2.2l0.8,10.2H43.1z M50.5,202.9c-0.7,0-1.3-0.1-1.8-0.3
					c-0.6-0.2-1-0.5-1.4-0.9c-0.4-0.4-0.6-0.8-0.8-1.3l2.3-0.9c0.1,0.3,0.2,0.5,0.4,0.8c0.2,0.2,0.4,0.4,0.7,0.6
					c0.3,0.2,0.6,0.2,0.9,0.2c0.3,0,0.6,0,0.8-0.1c0.2-0.1,0.4-0.2,0.5-0.4c0.1-0.2,0.2-0.4,0.2-0.6c0-0.2-0.1-0.3-0.2-0.5
					c-0.1-0.1-0.3-0.3-0.5-0.4c-0.2-0.1-0.4-0.2-0.7-0.3c-0.3-0.1-0.5-0.2-0.8-0.3c-0.4-0.1-0.9-0.3-1.2-0.5c-0.4-0.2-0.7-0.4-1-0.6
					c-0.3-0.2-0.5-0.5-0.7-0.9c-0.2-0.3-0.2-0.7-0.2-1.2c0-0.4,0.1-0.7,0.2-1c0.1-0.3,0.4-0.6,0.6-0.8c0.3-0.2,0.6-0.4,0.9-0.6
					s0.7-0.3,1.1-0.3c0.4-0.1,0.7-0.1,1.1-0.1c0.6,0,1.2,0.1,1.7,0.3c0.5,0.2,1,0.4,1.3,0.8c0.4,0.3,0.6,0.7,0.7,1.1l-2.2,1
					c-0.1-0.3-0.2-0.5-0.3-0.7c-0.1-0.2-0.3-0.3-0.6-0.4c-0.2-0.1-0.5-0.2-0.7-0.2c-0.2,0-0.4,0-0.5,0.1c-0.2,0-0.3,0.1-0.4,0.2
					c-0.1,0.1-0.2,0.2-0.3,0.3c-0.1,0.1-0.1,0.3-0.1,0.4c0,0.2,0.1,0.4,0.2,0.6c0.1,0.2,0.3,0.3,0.6,0.4c0.3,0.1,0.6,0.2,0.9,0.4
					c0.3,0.1,0.6,0.2,1,0.3c0.3,0.1,0.7,0.3,1,0.4c0.3,0.2,0.6,0.4,0.9,0.6c0.3,0.2,0.5,0.5,0.6,0.8c0.1,0.3,0.2,0.7,0.2,1.1
					c0,0.5-0.1,0.9-0.2,1.2c-0.2,0.3-0.4,0.6-0.6,0.9c-0.3,0.2-0.6,0.4-0.9,0.6c-0.3,0.1-0.7,0.3-1.1,0.3
					C51.3,202.9,50.9,202.9,50.5,202.9z"/>
				<rect x="-13.1" y="188.2" class="st11" width="70.2" height="18.1"/>
			</g>
		</g>
		<g class="st5">
			<path class="st8" d="M35.9,179.2c2.8,0,5-2.2,5-5c0-2.8-2.2-5-5-5c-2.8,0-5,2.2-5,5C30.9,177,33.2,179.2,35.9,179.2z"/>
			<g>
				<rect x="10.9" y="151.2" class="st9" width="49" height="18"/>
				<path class="st10" d="M14.6,165.7v-10.2H21v1.7h-4v3.2h3.3v1.7H17v3.4H14.6z M30.4,165.7h-2.4l-0.4-2.2h-2.7l-0.4,2.2H22
					l2.3-10.2H28L30.4,165.7z M26.1,157.3l-0.9,4.5h2l-0.9-4.5H26.1z M33.1,165.7l-2.4-10.2h2.4L35,164h0.1l1.8-8.4h2.4l-2.4,10.2
					H33.1z M40.9,165.7v-10.2h6.9v1.7h-4.5v2.6h4v1.7h-4v2.4h4.5v1.7H40.9z M53.3,165.9c-0.7,0-1.3-0.1-1.8-0.3
					c-0.6-0.2-1-0.5-1.4-0.9c-0.4-0.4-0.6-0.8-0.8-1.3l2.3-0.9c0.1,0.3,0.2,0.5,0.4,0.8c0.2,0.2,0.4,0.4,0.7,0.6
					c0.3,0.2,0.6,0.2,0.9,0.2c0.3,0,0.6,0,0.8-0.1c0.2-0.1,0.4-0.2,0.5-0.4c0.1-0.2,0.2-0.4,0.2-0.6c0-0.2-0.1-0.3-0.2-0.5
					c-0.1-0.1-0.3-0.3-0.5-0.4c-0.2-0.1-0.4-0.2-0.7-0.3c-0.3-0.1-0.5-0.2-0.8-0.3c-0.4-0.1-0.9-0.3-1.2-0.5c-0.4-0.2-0.7-0.4-1-0.6
					c-0.3-0.2-0.5-0.5-0.7-0.9c-0.2-0.3-0.2-0.7-0.2-1.2c0-0.4,0.1-0.7,0.2-1c0.1-0.3,0.4-0.6,0.6-0.8c0.3-0.2,0.6-0.4,0.9-0.6
					s0.7-0.3,1.1-0.3c0.4-0.1,0.7-0.1,1.1-0.1c0.6,0,1.2,0.1,1.7,0.3c0.5,0.2,1,0.4,1.3,0.8c0.4,0.3,0.6,0.7,0.7,1.1l-2.2,1
					c-0.1-0.3-0.2-0.5-0.3-0.7c-0.1-0.2-0.3-0.3-0.6-0.4c-0.2-0.1-0.5-0.2-0.7-0.2c-0.2,0-0.4,0-0.5,0.1c-0.2,0-0.3,0.1-0.4,0.2
					c-0.1,0.1-0.2,0.2-0.3,0.3c-0.1,0.1-0.1,0.3-0.1,0.4c0,0.2,0.1,0.4,0.2,0.6c0.1,0.2,0.3,0.3,0.6,0.4c0.3,0.1,0.6,0.2,0.9,0.4
					c0.3,0.1,0.6,0.2,1,0.3c0.3,0.1,0.7,0.3,1,0.4c0.3,0.2,0.6,0.4,0.9,0.6c0.3,0.2,0.5,0.5,0.6,0.8c0.1,0.3,0.2,0.7,0.2,1.1
					c0,0.5-0.1,0.9-0.2,1.2c-0.2,0.3-0.4,0.6-0.6,0.9c-0.3,0.2-0.6,0.4-0.9,0.6c-0.3,0.1-0.7,0.3-1.1,0.3
					C54.1,165.9,53.7,165.9,53.3,165.9z"/>
				<rect x="10.9" y="151.2" class="st11" width="49.2" height="18.1"/>
			</g>
		</g>
		<g class="st5">
			<g>
				<rect x="-23.1" y="222.2" class="st9" width="92" height="18"/>
				<path class="st10" d="M-16.2,236.9c-0.4,0-0.8-0.1-1.2-0.2c-0.4-0.1-0.8-0.3-1.2-0.5c-0.4-0.2-0.7-0.6-1-1
					c-0.3-0.4-0.5-0.9-0.7-1.5c-0.2-0.6-0.3-1.3-0.3-2.1c0-0.8,0.1-1.5,0.3-2.1c0.2-0.6,0.4-1.1,0.7-1.5c0.3-0.4,0.6-0.7,1-1
					c0.4-0.2,0.8-0.4,1.2-0.5c0.4-0.1,0.8-0.2,1.2-0.2c0.4,0,0.9,0.1,1.2,0.2c0.4,0.1,0.7,0.3,1.1,0.5c0.3,0.2,0.6,0.5,0.8,0.8
					c0.2,0.3,0.4,0.7,0.6,1.1l-2.1,1c-0.1-0.2-0.1-0.4-0.2-0.6c-0.1-0.2-0.2-0.4-0.3-0.6c-0.1-0.2-0.3-0.4-0.5-0.5
					c-0.2-0.1-0.4-0.2-0.6-0.2c-0.3,0-0.5,0.1-0.7,0.2c-0.2,0.1-0.4,0.3-0.6,0.6c-0.2,0.3-0.3,0.6-0.4,1.1c-0.1,0.4-0.2,1-0.2,1.6
					c0,0.6,0.1,1.1,0.2,1.6c0.1,0.4,0.3,0.8,0.4,1.1c0.2,0.3,0.4,0.5,0.6,0.6c0.2,0.1,0.5,0.2,0.7,0.2c0.2,0,0.5-0.1,0.6-0.2
					c0.2-0.1,0.3-0.3,0.5-0.5c0.1-0.2,0.2-0.4,0.3-0.6c0.1-0.2,0.2-0.4,0.2-0.6l2.1,1c-0.2,0.4-0.4,0.8-0.6,1.1
					c-0.2,0.3-0.5,0.6-0.8,0.8c-0.3,0.2-0.7,0.4-1.1,0.5C-15.4,236.8-15.8,236.9-16.2,236.9z M-7.4,236.9c-0.4,0-0.9-0.1-1.3-0.2
					c-0.4-0.1-0.8-0.3-1.2-0.6c-0.4-0.3-0.7-0.6-1-1c-0.3-0.4-0.5-0.9-0.7-1.5c-0.2-0.6-0.2-1.2-0.2-2c0-0.7,0.1-1.4,0.2-2
					c0.2-0.6,0.4-1.1,0.7-1.5c0.3-0.4,0.6-0.7,1-1c0.4-0.3,0.8-0.5,1.2-0.6c0.4-0.1,0.9-0.2,1.3-0.2c0.4,0,0.9,0.1,1.3,0.2
					c0.4,0.1,0.8,0.3,1.2,0.6c0.4,0.3,0.7,0.6,1,1c0.3,0.4,0.5,0.9,0.7,1.5c0.2,0.6,0.2,1.2,0.2,2c0,0.7-0.1,1.4-0.2,2
					c-0.2,0.6-0.4,1.1-0.7,1.5c-0.3,0.4-0.6,0.7-1,1c-0.4,0.3-0.8,0.4-1.2,0.6C-6.5,236.8-7,236.9-7.4,236.9z M-7.4,235.1
					c0.2,0,0.5-0.1,0.7-0.2c0.2-0.1,0.4-0.3,0.6-0.6c0.2-0.3,0.3-0.6,0.4-1.1c0.1-0.4,0.2-1,0.2-1.6c0-0.6-0.1-1.1-0.2-1.6
					c-0.1-0.4-0.2-0.8-0.4-1.1c-0.2-0.3-0.4-0.5-0.6-0.6c-0.2-0.1-0.5-0.2-0.7-0.2c-0.3,0-0.5,0.1-0.7,0.2c-0.2,0.1-0.4,0.3-0.6,0.6
					c-0.2,0.3-0.3,0.6-0.4,1.1c-0.1,0.4-0.2,1-0.2,1.6c0,0.6,0.1,1.1,0.2,1.6c0.1,0.4,0.2,0.8,0.4,1.1c0.2,0.3,0.4,0.5,0.6,0.6
					C-7.9,235.1-7.7,235.1-7.4,235.1z M2.8,235.4l0.5-3l1.5-5.8h1.3l0,2l-2,6.8H2.8z M-2.4,236.7l0.8-10.2h2.2l-0.6,10.2H-2.4z
					 M2.2,235.4l-2-6.8l0-2h1.3l1.6,5.8l0.5,3H2.2z M6.3,236.7l-0.6-10.2H8l0.8,10.2H6.3z M14.8,235.4l0.5-3l1.5-5.8h1.3l0,2l-2,6.8
					H14.8z M9.7,236.7l0.8-10.2h2.2l-0.6,10.2H9.7z M14.2,235.4l-2-6.8l0-2h1.3l1.6,5.8l0.5,3H14.2z M18.3,236.7l-0.6-10.2H20
					l0.8,10.2H18.3z M25.8,236.9c-0.5,0-1-0.1-1.5-0.2c-0.5-0.1-0.9-0.4-1.2-0.7c-0.4-0.3-0.6-0.7-0.8-1.2c-0.2-0.5-0.3-1.1-0.3-1.9
					v-6.4h2.4v6.3c0,0.5,0.1,1,0.2,1.3c0.1,0.3,0.3,0.6,0.5,0.7c0.2,0.1,0.5,0.2,0.8,0.2c0.3,0,0.6-0.1,0.8-0.2
					c0.2-0.1,0.4-0.4,0.5-0.7c0.1-0.3,0.2-0.8,0.2-1.3v-6.3h2.4v6.4c0,0.7-0.1,1.4-0.3,1.9c-0.2,0.5-0.5,0.9-0.8,1.2
					c-0.4,0.3-0.8,0.5-1.2,0.7C26.8,236.8,26.4,236.9,25.8,236.9z M31,236.7v-10.2h3.5l2.5,8.2h-0.5v-8.2H39v10.2h-3l-2.7-8.1h0.1
					v8.1H31z M40.9,236.7V235h2v-6.7h-2v-1.7h6.5v1.7h-2v6.7h2v1.7H40.9z M52,236.7v-8.4h-2.7v-1.7h7.8v1.7h-2.7v8.4H52z
					 M61.1,236.7v-3.3l-3-6.9h2.5l1.7,4.7l1.7-4.7h2.5l-3,6.9v3.3H61.1z"/>
				<rect x="-23.1" y="222.2" class="st11" width="92.2" height="18.1"/>
			</g>
		</g>
		<g class="st5">
			<path class="st7" d="M350.4,227.2c3.6,0,6.5-2.9,6.5-6.5c0-3.6-2.9-6.5-6.5-6.5V227.2z"/>
			<path class="st7" d="M350.4,214.2c-3.6,0-6.5,2.9-6.5,6.5c0,3.6,2.9,6.5,6.5,6.5V214.2z"/>
			<g>
				<rect x="334.9" y="196.2" class="st9" width="31" height="18"/>
				<path class="st10" d="M337.8,210.7v-10.2h3.7c0.2,0,0.5,0,0.8,0.1c0.3,0,0.6,0.1,0.9,0.2c0.3,0.1,0.6,0.2,0.9,0.4
					c0.3,0.2,0.5,0.4,0.6,0.7c0.2,0.3,0.2,0.7,0.2,1.1c0,0.5-0.1,0.9-0.3,1.3c-0.2,0.3-0.4,0.6-0.7,0.8c-0.3,0.2-0.5,0.3-0.7,0.3
					c0.2,0,0.4,0.1,0.7,0.2c0.2,0.1,0.5,0.2,0.7,0.4c0.2,0.2,0.4,0.4,0.5,0.7c0.1,0.3,0.2,0.7,0.2,1.1c0,0.6-0.1,1.2-0.4,1.6
					c-0.3,0.4-0.6,0.7-1.1,1c-0.5,0.2-1,0.3-1.5,0.3H337.8z M340.2,209h1.3c0.3,0,0.6,0,0.8-0.1c0.2-0.1,0.4-0.2,0.6-0.4
					c0.1-0.2,0.2-0.5,0.2-0.8c0-0.4-0.1-0.6-0.2-0.8c-0.1-0.2-0.3-0.3-0.6-0.4c-0.2-0.1-0.5-0.1-0.8-0.1h-1.2V209z M340.2,204.6h1
					c0.3,0,0.5,0,0.8-0.1c0.2-0.1,0.4-0.2,0.5-0.4c0.1-0.2,0.2-0.4,0.2-0.7c0-0.2,0-0.4-0.1-0.5c-0.1-0.1-0.2-0.3-0.3-0.3
					c-0.1-0.1-0.3-0.1-0.5-0.2c-0.2,0-0.4-0.1-0.6-0.1h-1V204.6z M349.2,210.7v-8.4h-2.7v-1.7h7.8v1.7h-2.7v8.4H349.2z M359.5,210.9
					c-0.7,0-1.3-0.1-1.8-0.3c-0.6-0.2-1-0.5-1.4-0.9c-0.4-0.4-0.6-0.8-0.8-1.3l2.3-0.9c0.1,0.3,0.2,0.5,0.4,0.8
					c0.2,0.2,0.4,0.4,0.7,0.6c0.3,0.2,0.6,0.2,0.9,0.2c0.3,0,0.6,0,0.8-0.1c0.2-0.1,0.4-0.2,0.5-0.4c0.1-0.2,0.2-0.4,0.2-0.6
					c0-0.2-0.1-0.3-0.2-0.5s-0.3-0.3-0.5-0.4c-0.2-0.1-0.4-0.2-0.7-0.3c-0.3-0.1-0.5-0.2-0.8-0.3c-0.4-0.1-0.9-0.3-1.2-0.5
					c-0.4-0.2-0.7-0.4-1-0.6c-0.3-0.2-0.5-0.5-0.7-0.9c-0.2-0.3-0.2-0.7-0.2-1.2c0-0.4,0.1-0.7,0.2-1c0.2-0.3,0.4-0.6,0.6-0.8
					c0.3-0.2,0.6-0.4,0.9-0.6c0.3-0.1,0.7-0.3,1.1-0.3c0.4-0.1,0.7-0.1,1.1-0.1c0.6,0,1.2,0.1,1.7,0.3c0.5,0.2,1,0.4,1.3,0.8
					c0.4,0.3,0.6,0.7,0.7,1.1l-2.2,1c-0.1-0.3-0.2-0.5-0.3-0.7c-0.1-0.2-0.3-0.3-0.6-0.4c-0.2-0.1-0.5-0.2-0.7-0.2
					c-0.2,0-0.4,0-0.5,0.1c-0.2,0-0.3,0.1-0.4,0.2c-0.1,0.1-0.2,0.2-0.3,0.3c-0.1,0.1-0.1,0.3-0.1,0.4c0,0.2,0.1,0.4,0.2,0.6
					c0.1,0.2,0.3,0.3,0.6,0.4c0.3,0.1,0.6,0.2,0.9,0.4c0.3,0.1,0.6,0.2,1,0.3c0.3,0.1,0.7,0.3,1,0.4c0.3,0.2,0.6,0.4,0.9,0.6
					c0.3,0.2,0.5,0.5,0.6,0.8c0.1,0.3,0.2,0.7,0.2,1.1c0,0.5-0.1,0.9-0.2,1.2c-0.2,0.3-0.4,0.6-0.6,0.9c-0.3,0.2-0.6,0.4-0.9,0.6
					c-0.3,0.1-0.7,0.3-1.1,0.3C360.3,210.9,359.9,210.9,359.5,210.9z"/>
				<rect x="334.9" y="196.2" class="st11" width="31.1" height="18.1"/>
			</g>
		</g>
		<path class="st7" d="M246.5,151.2c22.5-2.1,39.1-22.2,36.9-44.8c-2-21-19.5-37-40.6-37.2l-0.3,41.1L246.5,151.2z"/>
		<path class="st8" d="M242.8,69.2c-23.1,0.1-41.8,18.5-41.9,41.1c0,11.9,5.3,23.3,14.6,31l27.2-31.2L242.8,69.2z"/>
		<path class="st12" d="M215.4,141.3c8.6,7.4,19.8,10.9,31.1,9.9l-3.9-40.8L215.4,141.3z"/>
		<g>
			<rect x="222.6" y="58.2" class="st9" width="40" height="18"/>
			<path class="st10" d="M226.2,72.7V62.6h6.4v1.7h-4v3.2h3.3v1.7h-3.3v3.4H226.2z M241.9,72.7h-2.4l-0.4-2.2h-2.7l-0.4,2.2h-2.4
				l2.3-10.1h3.8L241.9,72.7z M237.7,64.3l-0.9,4.5h2l-0.9-4.5H237.7z M242.9,72.7V62.6h3.5l2.5,8.2h-0.5v-8.2h2.4v10.1h-3l-2.7-8.1
				h0.1v8.1H242.9z M256,72.9c-0.7,0-1.3-0.1-1.8-0.3c-0.6-0.2-1-0.5-1.4-0.9c-0.4-0.4-0.6-0.8-0.8-1.3l2.3-0.9
				c0.1,0.3,0.2,0.5,0.4,0.8c0.2,0.2,0.4,0.4,0.7,0.6c0.3,0.2,0.6,0.2,0.9,0.2c0.3,0,0.6,0,0.8-0.1c0.2-0.1,0.4-0.2,0.5-0.4
				c0.1-0.2,0.2-0.4,0.2-0.6c0-0.2-0.1-0.3-0.2-0.5c-0.1-0.1-0.3-0.3-0.5-0.4c-0.2-0.1-0.4-0.2-0.7-0.3c-0.3-0.1-0.5-0.2-0.8-0.3
				c-0.4-0.1-0.9-0.3-1.2-0.5c-0.4-0.2-0.7-0.4-1-0.6c-0.3-0.2-0.5-0.5-0.7-0.9c-0.2-0.3-0.2-0.7-0.2-1.2c0-0.4,0.1-0.7,0.2-1
				c0.1-0.3,0.4-0.6,0.6-0.8c0.3-0.2,0.6-0.4,0.9-0.6c0.3-0.1,0.7-0.3,1.1-0.3c0.4-0.1,0.7-0.1,1.1-0.1c0.6,0,1.2,0.1,1.7,0.3
				c0.5,0.2,1,0.4,1.3,0.8c0.4,0.3,0.6,0.7,0.7,1.1l-2.2,1c-0.1-0.3-0.2-0.5-0.3-0.7s-0.3-0.3-0.6-0.4c-0.2-0.1-0.5-0.2-0.7-0.2
				c-0.2,0-0.4,0-0.5,0.1c-0.2,0-0.3,0.1-0.4,0.2c-0.1,0.1-0.2,0.2-0.3,0.3c-0.1,0.1-0.1,0.3-0.1,0.4c0,0.2,0.1,0.4,0.2,0.6
				c0.1,0.2,0.3,0.3,0.6,0.4c0.3,0.1,0.6,0.2,0.9,0.4c0.3,0.1,0.6,0.2,1,0.3c0.3,0.1,0.7,0.3,1,0.4c0.3,0.2,0.6,0.4,0.9,0.6
				c0.3,0.2,0.5,0.5,0.6,0.8c0.1,0.3,0.2,0.7,0.2,1.1c0,0.5-0.1,0.9-0.2,1.2c-0.2,0.3-0.4,0.6-0.6,0.9c-0.3,0.2-0.6,0.4-0.9,0.6
				c-0.3,0.1-0.7,0.3-1.1,0.3C256.7,72.9,256.4,72.9,256,72.9z"/>
			<rect x="222.5" y="58.2" class="st11" width="40.1" height="18.2"/>
		</g>
		<path class="st7" d="M174.8,79.2c-4.3-1.9-8.9-2.8-13.6-2.8l-0.2,34.4L174.8,79.2z"/>
		<path class="st8" d="M161.1,76.2c-18.7-0.1-34.1,15-34.2,33.8c-0.1,18.8,15,34.1,33.8,34.2c18.7,0.1,34.1-15,34.2-33.8
			c0-1.7-0.1-3.5-0.3-5.1l-33.6,5L161.1,76.2z"/>
		<path class="st12" d="M194.6,105.3c-1.7-11.6-9.3-21.5-20-26.2l-13.6,31.2L194.6,105.3z"/>
		<g>
			<rect x="136.9" y="63.2" class="st9" width="49" height="18"/>
			<path class="st10" d="M143.3,77.9c-0.7,0-1.3-0.1-1.8-0.3c-0.6-0.2-1-0.5-1.4-0.9c-0.4-0.4-0.6-0.8-0.8-1.3l2.3-0.9
				c0.1,0.3,0.2,0.5,0.4,0.8c0.2,0.2,0.4,0.4,0.7,0.6c0.3,0.2,0.6,0.2,0.9,0.2c0.3,0,0.6,0,0.8-0.1c0.2-0.1,0.4-0.2,0.5-0.4
				c0.1-0.2,0.2-0.4,0.2-0.6c0-0.2-0.1-0.3-0.2-0.5c-0.1-0.1-0.3-0.3-0.5-0.4c-0.2-0.1-0.4-0.2-0.7-0.3c-0.3-0.1-0.5-0.2-0.8-0.3
				c-0.4-0.1-0.9-0.3-1.2-0.5c-0.4-0.2-0.7-0.4-1-0.6c-0.3-0.2-0.5-0.5-0.7-0.9c-0.2-0.3-0.2-0.7-0.2-1.2c0-0.4,0.1-0.7,0.2-1
				c0.2-0.3,0.4-0.6,0.6-0.8c0.3-0.2,0.6-0.4,0.9-0.6c0.3-0.1,0.7-0.3,1.1-0.3c0.4-0.1,0.7-0.1,1.1-0.1c0.6,0,1.2,0.1,1.7,0.3
				c0.5,0.2,1,0.4,1.3,0.8c0.4,0.3,0.6,0.7,0.7,1.1l-2.2,1c-0.1-0.3-0.2-0.5-0.3-0.7c-0.1-0.2-0.3-0.3-0.6-0.4
				c-0.2-0.1-0.5-0.2-0.7-0.2c-0.2,0-0.4,0-0.5,0.1c-0.2,0-0.3,0.1-0.4,0.2c-0.1,0.1-0.2,0.2-0.3,0.3c-0.1,0.1-0.1,0.3-0.1,0.4
				c0,0.2,0.1,0.4,0.2,0.6c0.1,0.2,0.3,0.3,0.6,0.4c0.3,0.1,0.6,0.2,0.9,0.4c0.3,0.1,0.6,0.2,1,0.3c0.3,0.1,0.7,0.3,1,0.4
				c0.3,0.2,0.6,0.4,0.9,0.6c0.3,0.2,0.5,0.5,0.6,0.8c0.1,0.3,0.2,0.7,0.2,1.1c0,0.5-0.1,0.9-0.2,1.2c-0.2,0.3-0.4,0.6-0.6,0.9
				c-0.3,0.2-0.6,0.4-0.9,0.6c-0.3,0.1-0.7,0.3-1.1,0.3C144.1,77.9,143.7,77.9,143.3,77.9z M151.3,77.7v-8.4h-2.7v-1.7h7.8v1.7h-2.7
				v8.4H151.3z M165.5,77.7H163l-0.4-2.2h-2.7l-0.4,2.2h-2.4l2.3-10.1h3.8L165.5,77.7z M161.2,69.3l-0.9,4.5h2l-0.9-4.5H161.2z
				 M166.4,77.7V67.6h3.5l2.5,8.2H172v-8.2h2.4v10.1h-3l-2.7-8.1h0.1v8.1H166.4z M179.5,77.9c-0.7,0-1.3-0.1-1.8-0.3
				c-0.6-0.2-1-0.5-1.4-0.9c-0.4-0.4-0.6-0.8-0.8-1.3l2.3-0.9c0.1,0.3,0.2,0.5,0.4,0.8c0.2,0.2,0.4,0.4,0.7,0.6
				c0.3,0.2,0.6,0.2,0.9,0.2c0.3,0,0.6,0,0.8-0.1c0.2-0.1,0.4-0.2,0.5-0.4c0.1-0.2,0.2-0.4,0.2-0.6c0-0.2-0.1-0.3-0.2-0.5
				c-0.1-0.1-0.3-0.3-0.5-0.4c-0.2-0.1-0.4-0.2-0.7-0.3c-0.3-0.1-0.5-0.2-0.8-0.3c-0.4-0.1-0.9-0.3-1.2-0.5c-0.4-0.2-0.7-0.4-1-0.6
				c-0.3-0.2-0.5-0.5-0.7-0.9c-0.2-0.3-0.2-0.7-0.2-1.2c0-0.4,0.1-0.7,0.2-1c0.2-0.3,0.4-0.6,0.6-0.8c0.3-0.2,0.6-0.4,0.9-0.6
				c0.3-0.1,0.7-0.3,1.1-0.3c0.4-0.1,0.7-0.1,1.1-0.1c0.6,0,1.2,0.1,1.7,0.3c0.5,0.2,1,0.4,1.3,0.8c0.4,0.3,0.6,0.7,0.7,1.1l-2.2,1
				c-0.1-0.3-0.2-0.5-0.3-0.7c-0.2-0.2-0.3-0.3-0.6-0.4c-0.2-0.1-0.5-0.2-0.7-0.2c-0.2,0-0.4,0-0.5,0.1c-0.2,0-0.3,0.1-0.4,0.2
				c-0.1,0.1-0.2,0.2-0.3,0.3c-0.1,0.1-0.1,0.3-0.1,0.4c0,0.2,0.1,0.4,0.2,0.6c0.1,0.2,0.3,0.3,0.6,0.4c0.3,0.1,0.6,0.2,0.9,0.4
				c0.3,0.1,0.6,0.2,1,0.3c0.3,0.1,0.7,0.3,1,0.4c0.3,0.2,0.6,0.4,0.9,0.6c0.3,0.2,0.5,0.5,0.6,0.8c0.1,0.3,0.2,0.7,0.2,1.1
				c0,0.5-0.1,0.9-0.2,1.2c-0.2,0.3-0.4,0.6-0.6,0.9c-0.3,0.2-0.6,0.4-0.9,0.6c-0.3,0.1-0.7,0.3-1.1,0.3
				C180.3,77.9,179.9,77.9,179.5,77.9z"/>
			<rect x="136.9" y="63.2" class="st11" width="49.2" height="18.2"/>
		</g>
		<g class="st5">
			<path class="st7" d="M90.9,129.8l0.1-17c3.3,0,6.4,1,9.2,2.8L90.9,129.8z"/>
			<path class="st8" d="M90.9,129.8l16.8,2.5c-1.3,8.4-8.5,14.5-16.9,14.5c-9.4-0.1-16.9-7.7-16.9-17.1c0.1-9.4,7.7-16.9,17.1-16.9
				L90.9,129.8z"/>
			<path class="st12" d="M90.9,129.8l9.3-14.2c5.6,3.6,8.5,10.2,7.5,16.8L90.9,129.8z"/>
			<g>
				<rect x="55.9" y="97.2" class="st9" width="70" height="18"/>
				<path class="st10" d="M59.4,111.7v-10.2h6.4v1.7h-4v3.2h3.3v1.7h-3.3v3.4H59.4z M75.2,111.7h-2.4l-0.4-2.2h-2.7l-0.4,2.2h-2.4
					l2.3-10.2h3.8L75.2,111.7z M70.9,103.3l-0.9,4.5h2l-0.9-4.5H70.9z M76.1,111.7v-10.2h3.5l2.5,8.2h-0.5v-8.2h2.4v10.2h-3
					l-2.7-8.1h0.1v8.1H76.1z M89.5,111.9c-0.4,0-0.8-0.1-1.2-0.2c-0.4-0.1-0.8-0.3-1.2-0.5c-0.4-0.2-0.7-0.6-1-1
					c-0.3-0.4-0.5-0.9-0.7-1.5c-0.2-0.6-0.3-1.3-0.3-2.1s0.1-1.5,0.3-2.1c0.2-0.6,0.4-1.1,0.7-1.5c0.3-0.4,0.6-0.7,1-1
					s0.8-0.4,1.2-0.5c0.4-0.1,0.8-0.2,1.2-0.2c0.4,0,0.9,0.1,1.2,0.2c0.4,0.1,0.7,0.3,1.1,0.5c0.3,0.2,0.6,0.5,0.8,0.8
					c0.2,0.3,0.4,0.7,0.6,1.1l-2.1,1c-0.1-0.2-0.1-0.4-0.2-0.6c-0.1-0.2-0.2-0.4-0.3-0.6c-0.1-0.2-0.3-0.4-0.5-0.5
					c-0.2-0.1-0.4-0.2-0.6-0.2c-0.3,0-0.5,0.1-0.7,0.2c-0.2,0.1-0.4,0.3-0.6,0.6c-0.2,0.3-0.3,0.6-0.4,1.1c-0.1,0.4-0.2,1-0.2,1.6
					c0,0.6,0.1,1.1,0.2,1.6c0.1,0.4,0.3,0.8,0.4,1.1c0.2,0.3,0.4,0.5,0.6,0.6c0.2,0.1,0.5,0.2,0.7,0.2c0.2,0,0.5-0.1,0.6-0.2
					c0.2-0.1,0.3-0.3,0.5-0.5c0.1-0.2,0.2-0.4,0.3-0.6c0.1-0.2,0.2-0.4,0.2-0.6l2.1,1c-0.2,0.4-0.4,0.8-0.6,1.1
					c-0.2,0.3-0.5,0.6-0.8,0.8c-0.3,0.2-0.7,0.4-1.1,0.5C90.4,111.8,90,111.9,89.5,111.9z M102.6,111.7h-2.4l-0.4-2.2h-2.7l-0.4,2.2
					h-2.4l2.3-10.2h3.8L102.6,111.7z M98.3,103.3l-0.9,4.5h2l-0.9-4.5H98.3z M108.6,110.4l0.5-3l1.5-5.8h1.3l0,2l-2,6.8H108.6z
					 M103.4,111.7l0.8-10.2h2.2l-0.6,10.2H103.4z M108,110.4l-2-6.8l0-2h1.3l1.6,5.8l0.5,3H108z M112.1,111.7l-0.6-10.2h2.2
					l0.8,10.2H112.1z M119.5,111.9c-0.7,0-1.3-0.1-1.8-0.3c-0.6-0.2-1-0.5-1.4-0.9c-0.4-0.4-0.6-0.8-0.8-1.3l2.3-0.9
					c0.1,0.3,0.2,0.5,0.4,0.8c0.2,0.2,0.4,0.4,0.7,0.6c0.3,0.2,0.6,0.2,0.9,0.2c0.3,0,0.6,0,0.8-0.1c0.2-0.1,0.4-0.2,0.5-0.4
					c0.1-0.2,0.2-0.4,0.2-0.6c0-0.2-0.1-0.3-0.2-0.5s-0.3-0.3-0.5-0.4c-0.2-0.1-0.4-0.2-0.7-0.3c-0.3-0.1-0.5-0.2-0.8-0.3
					c-0.4-0.1-0.9-0.3-1.2-0.5c-0.4-0.2-0.7-0.4-1-0.6c-0.3-0.2-0.5-0.5-0.7-0.9c-0.2-0.3-0.2-0.7-0.2-1.2c0-0.4,0.1-0.7,0.2-1
					c0.2-0.3,0.4-0.6,0.6-0.8c0.3-0.2,0.6-0.4,0.9-0.6c0.3-0.1,0.7-0.3,1.1-0.3c0.4-0.1,0.7-0.1,1.1-0.1c0.6,0,1.2,0.1,1.7,0.3
					c0.5,0.2,1,0.4,1.3,0.8c0.4,0.3,0.6,0.7,0.7,1.1l-2.2,1c-0.1-0.3-0.2-0.5-0.3-0.7c-0.2-0.2-0.3-0.3-0.6-0.4
					c-0.2-0.1-0.5-0.2-0.7-0.2c-0.2,0-0.4,0-0.5,0.1c-0.2,0-0.3,0.1-0.4,0.2c-0.1,0.1-0.2,0.2-0.3,0.3c-0.1,0.1-0.1,0.3-0.1,0.4
					c0,0.2,0.1,0.4,0.2,0.6c0.1,0.2,0.3,0.3,0.6,0.4c0.3,0.1,0.6,0.2,0.9,0.4c0.3,0.1,0.6,0.2,1,0.3c0.3,0.1,0.7,0.3,1,0.4
					c0.3,0.2,0.6,0.4,0.9,0.6c0.3,0.2,0.5,0.5,0.6,0.8c0.2,0.3,0.2,0.7,0.2,1.1c0,0.5-0.1,0.9-0.2,1.2c-0.2,0.3-0.4,0.6-0.6,0.9
					c-0.3,0.2-0.6,0.4-0.9,0.6c-0.3,0.1-0.7,0.3-1.1,0.3C120.3,111.9,119.9,111.9,119.5,111.9z"/>
				<rect x="55.9" y="97.2" class="st11" width="70.2" height="18.2"/>
			</g>
		</g>
		<g class="st5">
			<path class="st7" d="M303.9,140.3v9c5,0,9-4,9-9s-4-9-9-9V140.3z"/>
			<path class="st12" d="M294.9,140.3c0,5.6,4.5,9,9,9v-9H294.9z"/>
			<path class="st8" d="M303.9,131.3c-5,0-9,4-9,9h9V131.3z"/>
			<g>
				<rect x="279.9" y="113.2" class="st9" width="49" height="18"/>
				<path class="st10" d="M284.9,127.7v-8.4h-2.7v-1.7h7.8v1.7h-2.7v8.4H284.9z M291.9,127.7v-10.2h6.9v1.7h-4.5v2.6h4v1.7h-4v2.4
					h4.5v1.7H291.9z M301.1,127.7v-10.2h6.9v1.7h-4.5v2.6h4v1.7h-4v2.4h4.5v1.7H301.1z M309.6,127.7v-10.2h3.5l2.5,8.2h-0.5v-8.2
					h2.4v10.2h-3l-2.7-8.1h0.1v8.1H309.6z M322.7,127.9c-0.7,0-1.3-0.1-1.8-0.3c-0.6-0.2-1-0.5-1.4-0.9c-0.4-0.4-0.6-0.8-0.8-1.3
					l2.3-0.9c0.1,0.3,0.2,0.5,0.4,0.8c0.2,0.2,0.4,0.4,0.7,0.6c0.3,0.2,0.6,0.2,0.9,0.2c0.3,0,0.6,0,0.8-0.1
					c0.2-0.1,0.4-0.2,0.5-0.4c0.1-0.2,0.2-0.4,0.2-0.6c0-0.2-0.1-0.3-0.2-0.5c-0.1-0.1-0.3-0.3-0.5-0.4c-0.2-0.1-0.4-0.2-0.7-0.3
					c-0.3-0.1-0.5-0.2-0.8-0.3c-0.4-0.1-0.9-0.3-1.2-0.5c-0.4-0.2-0.7-0.4-1-0.6c-0.3-0.2-0.5-0.5-0.7-0.9c-0.2-0.3-0.2-0.7-0.2-1.2
					c0-0.4,0.1-0.7,0.2-1c0.1-0.3,0.4-0.6,0.6-0.8c0.3-0.2,0.6-0.4,0.9-0.6c0.3-0.1,0.7-0.3,1.1-0.3c0.4-0.1,0.7-0.1,1.1-0.1
					c0.6,0,1.2,0.1,1.7,0.3c0.5,0.2,1,0.4,1.3,0.8c0.4,0.3,0.6,0.7,0.7,1.1l-2.2,1c-0.1-0.3-0.2-0.5-0.3-0.7
					c-0.1-0.2-0.3-0.3-0.6-0.4c-0.2-0.1-0.5-0.2-0.7-0.2c-0.2,0-0.4,0-0.5,0.1c-0.2,0-0.3,0.1-0.4,0.2c-0.1,0.1-0.2,0.2-0.3,0.3
					c-0.1,0.1-0.1,0.3-0.1,0.4c0,0.2,0.1,0.4,0.2,0.6c0.1,0.2,0.3,0.3,0.6,0.4c0.3,0.1,0.6,0.2,0.9,0.4c0.3,0.1,0.6,0.2,1,0.3
					c0.3,0.1,0.7,0.3,1,0.4c0.3,0.2,0.6,0.4,0.9,0.6c0.3,0.2,0.5,0.5,0.6,0.8c0.1,0.3,0.2,0.7,0.2,1.1c0,0.5-0.1,0.9-0.2,1.2
					c-0.2,0.3-0.4,0.6-0.6,0.9c-0.3,0.2-0.6,0.4-0.9,0.6c-0.3,0.1-0.7,0.3-1.1,0.3C323.4,127.9,323.1,127.9,322.7,127.9z"/>
				<rect x="279.9" y="113.2" class="st11" width="49.1" height="18.2"/>
			</g>
		</g>
	</g>
</g>
</svg>
